HIERARCHY
ROOT reference
{
  OFFSET 0 0 0
  CHANNELS 6 Xposition Yposition Zposition Zrotation Xrotation Yrotation
  JOINT Hips
  {
    OFFSET -10.8081 68.5747 53.1438
    CHANNELS 6 Xposition Yposition Zposition Zrotation Xrotation Yrotation
    JOINT Spine
    {
      OFFSET 0 7.88368 0
      CHANNELS 6 Xposition Yposition Zposition Zrotation Xrotation Yrotation
      JOINT Spine1
      {
        OFFSET 0 24.7763 0
        CHANNELS 6 Xposition Yposition Zposition Zrotation Xrotation Yrotation
        JOINT Neck
        {
          OFFSET 0 24.6746 2.24314
          CHANNELS 6 Xposition Yposition Zposition Zrotation Xrotation Yrotation
          JOINT Head
          {
            OFFSET 0 13.4599 -1.92285
            CHANNELS 6 Xposition Yposition Zposition Zrotation Xrotation Yrotation
            End Site
            {
              OFFSET 0 24.0356 0
            }
          }
        }
        JOINT LeftShoulder
        {
          OFFSET 3.81022 22.3233 -0.325006
          CHANNELS 6 Xposition Yposition Zposition Zrotation Xrotation Yrotation
          JOINT LeftArm
          {
            OFFSET 12.5606 0 0
            CHANNELS 6 Xposition Yposition Zposition Zrotation Xrotation Yrotation
            JOINT LeftForeArm
            {
              OFFSET 28.8068 0 0
              CHANNELS 6 Xposition Yposition Zposition Zrotation Xrotation Yrotation
              JOINT LeftHand
              {
                OFFSET 23.8139 0 0
                CHANNELS 6 Xposition Yposition Zposition Zrotation Xrotation Yrotation
                End Site
                {
                  OFFSET 14.4214 0 0
                }
              }
            }
          }
        }
        JOINT RightShoulder
        {
          OFFSET -3.82306 22.3233 -0.325006
          CHANNELS 6 Xposition Yposition Zposition Zrotation Xrotation Yrotation
          JOINT RightArm
          {
            OFFSET -12.5606 0 0
            CHANNELS 6 Xposition Yposition Zposition Zrotation Xrotation Yrotation
            JOINT RightForeArm
            {
              OFFSET -28.8068 0 0
              CHANNELS 6 Xposition Yposition Zposition Zrotation Xrotation Yrotation
              JOINT RightHand
              {
                OFFSET -23.8139 0 0
                CHANNELS 6 Xposition Yposition Zposition Zrotation Xrotation Yrotation
                End Site
                {
                  OFFSET -14.4214 0 0
                }
              }
            }
          }
        }
      }
    }
    JOINT LeftUpLeg
    {
      OFFSET 9.61425 0 0
      CHANNELS 6 Xposition Yposition Zposition Zrotation Xrotation Yrotation
      JOINT LeftLeg
      {
        OFFSET 0 -41.4642 0
        CHANNELS 6 Xposition Yposition Zposition Zrotation Xrotation Yrotation
        JOINT LeftFoot
        {
          OFFSET 0 -34.276 0
          CHANNELS 6 Xposition Yposition Zposition Zrotation Xrotation Yrotation
          JOINT LeftToeBase
          {
            OFFSET 0 -6.24926 14.4214
            CHANNELS 6 Xposition Yposition Zposition Zrotation Xrotation Yrotation
            End Site
            {
              OFFSET 0 0 3.8457
            }
          }
        }
      }
    }
    JOINT RightUpLeg
    {
      OFFSET -9.61425 0 0
      CHANNELS 6 Xposition Yposition Zposition Zrotation Xrotation Yrotation
      JOINT RightLeg
      {
        OFFSET 0 -41.4642 0
        CHANNELS 6 Xposition Yposition Zposition Zrotation Xrotation Yrotation
        JOINT RightFoot
        {
          OFFSET 0 -34.276 0
          CHANNELS 6 Xposition Yposition Zposition Zrotation Xrotation Yrotation
          JOINT RightToeBase
          {
            OFFSET 0 -6.24926 14.4214
            CHANNELS 6 Xposition Yposition Zposition Zrotation Xrotation Yrotation
            End Site
            {
              OFFSET 0 0 3.8457
            }
          }
        }
      }
    }
  }
}
MOTION
Frames:	9
Frame Time:	0.004
0 0 0 0 0 -0 -16.3572 59.6747 -129.528 6.15746 -9.30742 12.0829 5.32907e-015 7.88368 -1.42109e-014 -13.9297 54.9498 10.6355 3.55271e-015 24.7763 -2.84217e-014 -2.27186 20.1588 3.76946 0 24.6746 2.24314 -9.03768 15.2553 -12.5123 0 13.4599 -1.92285 25.0796 -35.4628 -1.74323 3.81022 22.3233 -0.325006 -5.16374 2.78597 1.00475 12.5606 0 0 -17.5063 47.3282 -60.383 28.8068 1.42109e-014 1.42109e-014 47.7754 -32.5214 -87.8399 23.8139 7.10543e-015 0 -51.851 5.53092 24.7112 -3.82306 22.3233 -0.325006 1.89731 -0.118911 18.7457 -12.5606 7.10543e-015 0 45.3614 17.4262 34.7051 -28.8068 0 0 -16.7759 -20.8832 89.3566 -23.8139 0 -7.10543e-015 13.4844 -5.73549 -10.2416 9.61425 1.42109e-014 -1.42109e-014 4.99384 -50.3569 19.1429 7.10543e-015 -41.4642 0 -19.5031 75.4427 20.8135 0 -34.276 1.42109e-014 11.9044 -13.4411 24.4802 1.42109e-014 -6.24926 14.4214 4.41391e-032 -3.97569e-016 6.36111e-015 -9.61425 1.42109e-014 0 -3.9308 -17.6376 -5.21934 3.55271e-015 -41.4642 0 -160.536 77.0014 177.525 -5.32907e-015 -34.276 0 -14.0204 -34.817 -37.432 0 -6.24926 14.4214 -2.48481e-015 -3.18055e-015 1.09332e-015 
0 0 0 0 0 -0 -16.243 59.69 -129.232 6.14524 -9.32586 12.1929 -3.55271e-015 7.88368 0 -13.8916 54.9857 10.6134 0 24.7763 0 -2.23638 20.1892 3.75612 0 24.6746 2.24314 -8.79353 15.299 -12.5093 0 13.4599 -1.92285 24.9166 -35.6173 -1.78701 3.81022 22.3233 -0.325006 -5.19608 2.7556 0.974569 12.5606 0 0 -17.259 47.4336 -60.5327 28.8068 0 0 48.1204 -32.5786 -87.5358 23.8139 3.55271e-015 -1.42109e-014 -51.6832 5.59629 24.8664 -3.82306 22.3233 -0.325006 1.96382 -0.130331 18.7414 -12.5606 -7.10543e-015 1.42109e-014 45.2817 17.5132 34.6363 -28.8068 -1.42109e-014 0 -16.8884 -20.9688 89.4153 -23.8139 -7.10543e-015 0 13.384 -5.69935 -10.3672 9.61425 0 0 4.8468 -50.2267 19.038 0 -41.4642 0 -19.6677 75.7118 20.9298 0 -34.276 0 12.0145 -13.7653 24.5705 0 -6.24926 14.4214 1.98785e-016 0 -0 -9.61425 0 1.42109e-014 -4.09839 -17.8733 -5.25003 -1.77636e-015 -41.4642 0 -161.692 76.4956 179.376 3.55271e-015 -34.276 0 -14.3588 -33.0458 -37.6909 0 -6.24926 14.4214 -9.31803e-016 -3.18055e-015 3.47873e-016 
0 0 0 0 0 -0 -16.0902 59.734 -128.911 6.20509 -9.47928 12.2606 -1.77636e-015 7.88368 0 -13.7733 55.1767 10.5413 0 24.7763 -2.84217e-014 -2.34143 20.2292 3.73665 0 24.6746 2.24314 -8.76047 15.348 -12.523 0 13.4599 -1.92285 24.9967 -35.6864 -1.75394 3.81022 22.3233 -0.325006 -5.36661 2.77446 0.928347 12.5606 7.10543e-015 -1.42109e-014 -17.4168 47.2621 -60.2991 28.8068 1.42109e-014 0 47.8768 -32.4575 -87.7444 23.8139 3.55271e-015 0 -52.0281 5.45762 24.9889 -3.82306 22.3233 -0.325006 2.04605 -0.080976 18.8707 -12.5606 7.10543e-015 0 45.2941 17.3935 34.4817 -28.8068 1.42109e-014 0 -16.9304 -20.9149 89.551 -23.8139 0 0 13.0436 -5.54018 -10.4844 9.61425 -1.42109e-014 0 4.63399 -49.8673 18.941 0 -41.4642 -7.10543e-015 -19.7487 75.9329 20.8906 0 -34.276 0 12.1584 -14.153 24.7522 0 -6.24926 14.4214 1.98785e-016 5.96354e-016 9.54166e-015 -9.61425 0 0 -4.35464 -17.9274 -5.22839 -1.77636e-015 -41.4642 0 -162.392 76.0571 -179.865 3.55271e-015 -34.276 -7.10543e-015 -13.3692 -31.8724 -36.742 3.55271e-015 -6.24926 14.4214 -3.37934e-015 1.59028e-014 4.42296e-015 
0 0 0 0 0 -0 -16.0031 59.7542 -128.638 6.15944 -9.48638 12.3627 0 7.88368 0 -13.7905 55.2262 10.5726 -3.55271e-015 24.7763 0 -2.2594 20.2221 3.73648 0 24.6746 2.24314 -8.5837 15.3191 -12.5283 0 13.4599 -1.92285 24.8961 -35.7325 -1.79488 3.81022 22.3233 -0.325006 -5.36944 2.72087 0.915372 12.5606 -7.10543e-015 0 -17.5973 47.2992 -60.2118 28.8068 2.84217e-014 0 47.9741 -32.4035 -87.6973 23.8139 -3.55271e-015 -1.42109e-014 -52.2354 5.47558 25.1353 -3.82306 22.3233 -0.325006 2.09653 -0.074683 18.7755 -12.5606 7.10543e-015 0 45.1938 17.4591 34.5578 -28.8068 0 0 -17.0248 -20.9312 89.5645 -23.8139 0 0 13.1346 -5.47581 -10.5811 9.61425 0 0 4.54047 -49.7736 18.8422 0 -41.4642 0 -19.8233 76.189 20.966 7.10543e-015 -34.276 1.42109e-014 12.1815 -14.4351 24.7879 0 -6.24926 14.4214 3.97569e-016 -1.98785e-016 3.18055e-015 -9.61425 0 0 -4.4442 -18.2097 -5.27276 1.77636e-015 -41.4642 0 -163.193 75.607 -178.869 0 -34.276 7.10543e-015 -13.338 -30.5654 -36.7163 7.10543e-015 -6.24926 14.4214 2.18663e-015 0 1.59028e-015 
0 0 0 0 0 -0 -15.9044 59.7705 -128.346 6.12023 -9.49871 12.4589 0 7.88368 0 -13.6833 55.2647 10.5056 0 24.7763 0 -2.27251 20.2065 3.72224 0 24.6746 2.24314 -8.42832 15.3889 -12.5244 3.55271e-015 13.4599 -1.92285 24.8458 -35.8226 -1.80132 3.81022 22.3233 -0.325006 -5.38163 2.77641 0.888917 12.5606 7.10543e-015 0 -17.3503 47.3349 -60.3396 28.8068 -1.42109e-014 0 48.2941 -32.5091 -87.3526 23.8139 -1.42109e-014 0 -52.195 5.4272 25.1803 -3.82306 22.3233 -0.325006 2.19882 0.181949 18.9193 -12.5606 -2.13163e-014 1.42109e-014 44.9766 17.2948 34.5319 -28.8068 0 0 -17.1036 -21.0344 89.7311 -23.8139 0 0 13.1265 -5.46682 -10.7022 9.61425 0 -1.42109e-014 4.4633 -49.6655 18.7316 7.10543e-015 -41.4642 -7.10543e-015 -20.1358 76.4581 21.2509 0 -34.276 -1.42109e-014 12.1559 -14.7541 24.8737 1.42109e-014 -6.24926 14.4214 1.98785e-016 0 -3.18055e-015 -9.61425 0 0 -4.57562 -18.4975 -5.25523 0 -41.4642 0 -164.482 75.1755 -177.137 1.77636e-015 -34.276 0 -13.3645 -29.2796 -36.774 3.55271e-015 -6.24926 14.4214 -5.96354e-016 0 -5.96354e-016 
0 0 0 0 0 -0 -15.8134 59.7884 -128.061 6.07369 -9.53237 12.5808 -3.55271e-015 7.88368 0 -13.6574 55.2921 10.504 0 24.7763 0 -2.16704 20.2504 3.7122 3.55271e-015 24.6746 2.24314 -8.33534 15.3708 -12.5382 3.55271e-015 13.4599 -1.92285 24.8399 -35.8293 -1.81642 3.81022 22.3233 -0.325006 -5.43194 2.76049 0.862053 12.5606 0 0 -17.6278 47.2317 -60.1655 28.8068 0 -1.42109e-014 48.2169 -32.321 -87.4042 23.8139 -7.10543e-015 0 -52.2767 5.52266 25.2758 -3.82306 22.3233 -0.325006 2.21002 0.087976 18.8797 -12.5606 -7.10543e-015 1.42109e-014 44.9719 17.4545 34.4552 -28.8068 2.84217e-014 0 -17.2571 -21.0985 89.7505 -23.8139 -2.13163e-014 0 12.6719 -5.34741 -10.8839 9.61425 0 1.42109e-014 4.37447 -49.537 18.6324 0 -41.4642 -7.10543e-015 -20.2787 76.7394 21.3336 7.10543e-015 -34.276 1.42109e-014 12.1797 -15.0762 24.9612 -1.42109e-014 -6.24926 14.4214 1.98785e-016 5.96354e-016 -1.27222e-014 -9.61425 0 0 -4.66566 -18.7314 -5.33295 -5.32907e-015 -41.4642 1.42109e-014 -165.187 74.8086 -176.516 0 -34.276 0 -13.1519 -28.3399 -36.4178 0 -6.24926 14.4214 9.93923e-016 3.18055e-015 -1.39149e-015 
0 0 0 0 0 -0 -15.7168 59.8048 -127.771 6.03013 -9.5623 12.6684 7.10543e-015 7.88368 -1.42109e-014 -13.598 55.2932 10.4759 3.55271e-015 24.7763 0 -2.12694 20.3063 3.70934 0 24.6746 2.24314 -8.21405 15.4304 -12.5572 0 13.4599 -1.92285 24.8218 -35.9331 -1.8278 3.81022 22.3233 -0.325006 -5.4504 2.7797 0.830802 12.5606 7.10543e-015 0 -17.8895 47.1448 -59.9924 28.8068 0 0 48.2345 -32.1518 -87.3853 23.8139 0 -1.42109e-014 -52.0949 5.71989 25.3875 -3.82306 22.3233 -0.325006 2.25717 0.178586 18.9471 -12.5606 0 0 44.8996 17.3583 34.4083 -28.8068 0 -1.42109e-014 -17.3951 -21.2061 89.819 -23.8139 0 7.10543e-015 13.1945 -5.33826 -10.7989 9.61425 0 0 4.33265 -49.4026 18.6118 7.10543e-015 -41.4642 -1.42109e-014 -20.4307 77.0491 21.4545 0 -34.276 1.42109e-014 12.1637 -15.4428 25.0059 0 -6.24926 14.4214 -4.41391e-032 1.98785e-016 1.27222e-014 -9.61425 1.42109e-014 -1.42109e-014 -4.77178 -18.9835 -5.37049 -1.77636e-015 -41.4642 1.42109e-014 -165.913 74.3709 -175.398 -3.55271e-015 -34.276 7.10543e-015 -13.1436 -27.3557 -36.3278 0 -6.24926 14.4214 -2.18663e-015 -9.54166e-015 -1.78906e-015 
0 0 0 0 0 -0 -15.6218 59.8208 -127.485 5.99227 -9.61696 12.7553 0 7.88368 -1.42109e-014 -13.5774 55.3456 10.4882 -7.10543e-015 24.7763 0 -2.0742 20.3093 3.71522 -7.10543e-015 24.6746 2.24314 -8.15479 15.468 -12.5775 -7.10543e-015 13.4599 -1.92285 24.9096 -35.9453 -1.80941 3.81022 22.3233 -0.325006 -5.4959 2.78829 0.802986 12.5606 7.10543e-015 0 -17.5816 47.2381 -60.1581 28.8068 -1.42109e-014 0 48.5677 -32.2376 -86.9876 23.8139 0 0 -51.9917 5.69846 25.3849 -3.82306 22.3233 -0.325006 2.3497 0.204604 18.8947 -12.5606 7.10543e-015 1.42109e-014 44.7875 17.4193 34.4232 -28.8068 -1.42109e-014 0 -17.5064 -21.2237 89.8393 -23.8139 0 0 13.1869 -5.24569 -10.8983 9.61425 0 -1.42109e-014 4.29462 -49.2405 18.5783 0 -41.4642 0 -20.8293 77.1932 21.9376 0 -34.276 -1.42109e-014 12.3212 -15.6343 25.1459 0 -6.24926 14.4214 -1.10348e-032 1.98785e-016 3.18055e-015 -9.61425 0 0 -4.87037 -19.2057 -5.43925 -1.77636e-015 -41.4642 -1.42109e-014 -166.49 73.9635 -174.603 1.77636e-015 -34.276 7.10543e-015 -13.0051 -26.795 -36.1877 -3.55271e-015 -6.24926 14.4214 -3.18055e-015 -3.18055e-015 -3.97569e-016 
0 0 0 0 0 -0 -15.5235 59.8361 -127.194 5.96236 -9.64904 12.8481 3.55271e-015 7.88368 0 -13.482 55.3274 10.428 -7.10543e-015 24.7763 0 -2.06988 20.3835 3.70886 3.55271e-015 24.6746 2.24314 -7.93649 15.5026 -12.5722 0 13.4599 -1.92285 24.7329 -36.0351 -1.87011 3.81022 22.3233 -0.325006 -5.49651 2.80633 0.741472 12.5606 0 1.42109e-014 -18.0494 47.0788 -59.8387 28.8068 0 0 48.4522 -32.0413 -87.0712 23.8139 -3.55271e-015 0 -52.2185 5.74474 25.4762 -3.82306 22.3233 -0.325006 2.42073 0.232646 18.9506 -12.5606 7.10543e-015 0 44.679 17.2677 34.4359 -28.8068 1.42109e-014 0 -17.4898 -21.0325 89.8888 -23.8139 0 0 12.982 -5.033 -10.9803 9.61425 0 1.42109e-014 4.21876 -49.0993 18.5464 0 -41.4642 7.10543e-015 -20.8743 77.4757 21.921 0 -34.276 0 12.6428 -15.8964 25.2273 0 -6.24926 14.4214 -3.97569e-016 -7.95139e-016 -3.18055e-015 -9.61425 0 0 -5.00159 -19.4372 -5.50537 0 -41.4642 1.42109e-014 -167.118 73.5617 -173.698 7.10543e-015 -34.276 0 -12.9275 -26.6221 -36.1888 -3.55271e-015 -6.24926 14.4214 3.97569e-015 0 -0 
